<svg height="480pt" viewBox="0 0 480 480" width="480pt" xmlns="http://www.w3.org/2000/svg"><path d="m40 8h112v160h-112zm0 0" fill="#cfdfe8"/><g fill="#2d75bb"><path d="m88 8h16v160h-16zm0 0"/><path d="m40 48h112v16h-112zm0 0"/><path d="m8 264h464v32h-464zm0 0"/></g><path d="m368 424h-256c-22.980469-1.515625-42.367188-17.667969-48-40l-24-88h400l-24 88c-5.632812 22.332031-25.019531 38.484375-48 40zm0 0" fill="#87cee9"/><path d="m224 176v88h32v-80h32v16h32v-24c0-13.253906-10.746094-24-24-24h-48c-13.253906 0-24 10.746094-24 24zm0 0" fill="#195c85"/><path d="m160 232h32v32h-32zm0 0" fill="#5a6470"/><path d="m288 232h32v32h-32zm0 0" fill="#5a6470"/><path d="m128 472h-32l16-48h32zm0 0" fill="#2d75bb"/><path d="m352 472h32l-16-48h-32zm0 0" fill="#2d75bb"/><path d="m0 464h168v16h-168zm0 0" fill="#e1462b"/><path d="m184 464h16v16h-16zm0 0" fill="#e1462b"/><path d="m216 464h264v16h-264zm0 0" fill="#e1462b"/><path d="m88 264h80v96h-80zm0 0" fill="#ffd782"/><path d="m168 264h48v80h-48zm0 0" fill="#eaba65"/><path d="m376 400h-32v-16h27.054688l13.785156-27.574219 14.320312 7.148438-16 32c-1.355468 2.714843-4.128906 4.425781-7.160156 4.425781zm0 0" fill="#cdeef6"/><path d="m312 384h16v16h-16zm0 0" fill="#cdeef6"/><path d="m16 160h160v16h-160zm0 0" fill="#995f5b"/><path d="m16 0h160v16h-160zm0 0" fill="#995f5b"/><path d="m344 8h16c26.507812 0 48 21.492188 48 48h-16c-26.507812 0-48-21.492188-48-48zm0 0" fill="#409b51"/><path d="m424 56h-16c0-26.507812 21.492188-48 48-48h16c0 26.507812-21.492188 48-48 48zm0 0" fill="#409b51"/><path d="m424 136h-32l-8-48h48zm0 0" fill="#d3843d"/><path d="m400 56h16v32h-16zm0 0" fill="#995f5b"/><path d="m352 128h128v16h-128zm0 0" fill="#995f5b"/><path d="m400 160h80v16h-80zm0 0" fill="#995f5b"/><path d="m472 256h-144v-24c0-4.417969-3.582031-8-8-8h-32c-4.417969 0-8 3.582031-8 8v24h-16v-64h16v8c0 4.417969 3.582031 8 8 8h32c4.417969 0 8-3.582031 8-8v-24c0-17.671875-14.328125-32-32-32h-48c-17.671875 0-32 14.328125-32 32v80h-16v-24c0-4.417969-3.582031-8-8-8h-32c-4.417969 0-8 3.582031-8 8v24h-144c-4.417969 0-8 3.582031-8 8v32c0 4.417969 3.582031 8 8 8h25.886719l22.351562 81.945312c5.777344 22.015626 23.039063 39.164063 45.089844 44.796876l-11.089844 33.257812h-90.238281v16h168v-16h-28.902344l10.664063-32h180.476562l10.664063 32h-124.902344v16h264v-16h-90.238281l-11.089844-33.273438c22-5.597656 39.242187-22.675781 45.046875-44.621093l22.394531-82.105469h25.886719c4.417969 0 8-3.582031 8-8v-32c0-4.417969-3.582031-8-8-8zm-176-16h16v16h-16zm-64-64c0-8.835938 7.164062-16 16-16h48c8.835938 0 16 7.164062 16 16v16h-16v-8c0-4.417969-3.582031-8-8-8h-32c-4.417969 0-8 3.582031-8 8v72h-16zm-56 96h32v64h-32zm-8-32h16v16h-16zm-8 32v80h-64v-80zm-144 0h64v16h-64zm106.230469 192h-15.125l10.664062-32h15.125zm235.539062 0-10.664062-32h15.125l10.664062 32zm50.46875-81.945312c-4.742187 18.773437-20.933593 32.433593-40.238281 33.945312h-256c-19.359375-1.53125-35.574219-15.261719-40.28125-34.105469l-21.238281-77.894531h29.519531v56c0 4.417969 3.582031 8 8 8h80c4.417969 0 8-3.582031 8-8v-8h40c4.417969 0 8-3.582031 8-8v-40h205.519531zm55.761719-94.054688h-240v-16h240zm0 0"/><path d="m184 464h16v16h-16zm0 0"/><path d="m383.199219 395.574219 16-32-14.320313-7.148438-13.824218 27.574219h-27.054688v16h32c3.046875.015625 5.839844-1.699219 7.199219-4.425781zm0 0"/><path d="m312 384h16v16h-16zm0 0"/><path d="m16 160v16h160v-16h-16v-144h16v-16h-160v16h16v144zm88 0v-96h40v96zm40-112h-40v-32h40zm-56-32v32h-40v-32zm-40 48h40v96h-40zm0 0"/><path d="m424 64c30.910156-.039062 55.960938-25.089844 56-56 0-4.417969-3.582031-8-8-8h-16c-19.6875.03125-37.910156 10.398438-48 27.304688-10.089844-16.90625-28.3125-27.273438-48-27.304688h-16c-4.417969 0-8 3.582031-8 8 .039062 30.910156 25.089844 55.960938 56 56h8v16h-16c-2.351562 0-4.582031 1.035156-6.101562 2.828125-1.519532 1.792969-2.171876 4.164063-1.785157 6.484375l6.445313 38.6875h-30.558594v16h128v-16h-46.558594l6.445313-38.6875c.386719-2.320312-.265625-4.691406-1.785157-6.484375-1.519531-1.792969-3.75-2.828125-6.101562-2.828125h-16v-16zm32-48h7.199219c-3.824219 18.613281-20.199219 31.980469-39.199219 32h-7.199219c3.824219-18.613281 20.199219-31.980469 39.199219-32zm-64 32c-19-.019531-35.375-13.386719-39.199219-32h7.199219c19 .019531 35.375 13.386719 39.199219 32zm25.222656 80h-18.445312l-5.328125-32h29.101562zm0 0"/><path d="m400 160h80v16h-80zm0 0"/></svg>