<svg height="480pt" viewBox="0 -28 480 480" width="480pt" xmlns="http://www.w3.org/2000/svg"><path d="m8 8h32v408h-32zm0 0" fill="#fcbc04"/><path d="m440 8h32v408h-32zm0 0" fill="#fcbc04"/><path d="m40 304h400v64h-400zm0 0" fill="#4891d3"/><path d="m40 240h64c17.671875 0 32 14.328125 32 32v32h-96zm0 0" fill="#57b7eb"/><path d="m40 112h400v64h-400zm0 0" fill="#4891d3"/><g fill="#57b7eb"><path d="m40 48h64c17.671875 0 32 14.328125 32 32v32h-96zm0 0"/><path d="m160 112h240c0 17.671875-14.328125 32-32 32h-176c-17.671875 0-32-14.328125-32-32zm0 0"/><path d="m160 304h240c0 17.671875-14.328125 32-32 32h-176c-17.671875 0-32-14.328125-32-32zm0 0"/></g><path d="m456 8h16v360c-8.835938 0-16-7.164062-16-16zm0 0" fill="#f9e109"/><path d="m24 8h16v360c-8.835938 0-16-7.164062-16-16zm0 0" fill="#f9e109"/><path d="m472 0h-32c-4.417969 0-8 3.582031-8 8v96h-16v-40c0-4.417969-3.582031-8-8-8s-8 3.582031-8 8v40h-80v-40c0-4.417969-3.582031-8-8-8s-8 3.582031-8 8v40h-48v-16h16c4.417969 0 8-3.582031 8-8s-3.582031-8-8-8h-128.800781c-3.800781-18.625-20.1875-32.003906-39.199219-32h-56v-32c0-4.417969-3.582031-8-8-8h-32c-4.417969 0-8 3.582031-8 8v408c0 4.417969 3.582031 8 8 8s8-3.582031 8-8v-400h16v400c0 4.417969 3.582031 8 8 8s8-3.582031 8-8v-104h256v48h-232c-4.417969 0-8 3.582031-8 8s3.582031 8 8 8h232v40c0 4.417969 3.582031 8 8 8s8-3.582031 8-8v-40h80v40c0 4.417969 3.582031 8 8 8s8-3.582031 8-8v-40h16v40c0 4.417969 3.582031 8 8 8s8-3.582031 8-8v-400h16v400c0 4.417969 3.582031 8 8 8s8-3.582031 8-8v-408c0-4.417969-3.582031-8-8-8zm-40 120v176h-16v-176zm-112 96h80v48h-80zm80-16h-80v-48h80zm-80 80h80v16h-80zm80-160v16h-80v-16zm-160-16h-40v-16h40zm-96 0v-16h40v16zm-56 0v-16h40v16zm-40 0v-16h24v16zm192 176v16h-40v-16zm-56 16h-40v-16h40zm-56-16v16h-40v-16zm-80-16v-16h56c10.144531.027344 19.179688 6.433594 22.558594 16zm56-208c10.144531.027344 19.179688 6.433594 22.558594 16h-78.558594v-16zm-56 224h24v16h-24zm208 16v-16h16c4.417969 0 8-3.582031 8-8s-3.582031-8-8-8h-128.800781c-3.800781-18.625-20.1875-32.003906-39.199219-32h-56v-48h232c4.417969 0 8-3.582031 8-8s-3.582031-8-8-8h-232v-48h256v176zm144 16v16h-80v-16zm-80 48v-16h80v16zm96 0v-48h16v48zm0 0" fill="#323232"/></svg>