<svg height="496pt" viewBox="-112 0 496 496.13" width="496pt" xmlns="http://www.w3.org/2000/svg"><path d="m201.585938 56.128906h-129.28125l-64.238282 72v360h256v-360zm-65.519532 32c13.253906 0 24 10.746094 24 24 0 13.257813-10.746094 24-24 24-13.257812 0-24-10.742187-24-24 0-13.253906 10.742188-24 24-24zm0 0" fill="#91cc04"/><path d="m216.066406 312.128906c0 44.183594-35.820312 80-80 80-44.183594 0-80-35.816406-80-80s35.816406-80 80-80c44.179688 0 80 35.816406 80 80zm0 0" fill="#ffda44"/><g fill="#231f20"><path d="m270.105469 122.882812-62.511719-72c-1.519531-1.746093-3.71875-2.75-6.03125-2.753906h-33.714844l7.730469-21.261718c1.0625-2.921876.339844-6.195313-1.855469-8.394532-24.640625-24.628906-50.671875-24.628906-75.3125 0-2.199218 2.199219-2.921875 5.472656-1.855468 8.394532l7.726562 21.261718h-32c-2.28125 0-4.449219.972656-5.96875 2.671875l-64.222656 72c-1.308594 1.46875-2.027344 3.363281-2.0234378 5.328125v360c0 4.417969 3.5820318 8 7.9999998 8h256c4.417969 0 8-3.582031 8-8v-360c0-1.925781-.695312-3.789062-1.960937-5.246094zm-156.71875-96.535156c15.542969-13.601562 29.8125-13.601562 45.359375 0l-7.914063 21.78125h-29.527343zm142.679687 453.78125h-240v-348.949218l59.816406-67.050782h34.214844l7.871094 21.648438c-13.003906 8.96875-17.503906 26.089844-10.589844 40.292968 6.917969 14.199219 23.171875 21.21875 38.25 16.511719s24.453125-19.722656 22.0625-35.335937c-2.390625-15.613282-15.832031-27.136719-31.625-27.117188-1.035156 0-2.007812.210938-3.015625.304688l-5.929687-16.304688h70.785156l58.160156 66.992188zm-132.226562-378.199218 4.714844 12.9375c.898437 2.785156 3.25 4.855468 6.128906 5.398437 2.875.539063 5.816406-.53125 7.671875-2.796875s2.324219-5.363281 1.222656-8.074219l-4.722656-12.984375c7.203125 1.214844 12.6875 7.125 13.363281 14.398438.671875 7.273437-3.628906 14.089844-10.484375 16.609375-6.855469 2.523437-14.550781.113281-18.746094-5.863281-4.199219-5.980469-3.847656-14.03125.851563-19.625zm0 0"/><path d="m48.066406 312.128906c0 48.601563 39.398438 88 88 88 48.601563 0 88-39.398437 88-88 0-48.601562-39.398437-88-88-88-48.578125.058594-87.945312 39.421875-88 88zm160 0c0 39.765625-32.238281 72-72 72-39.765625 0-72-32.234375-72-72 0-39.761718 32.234375-72 72-72 39.746094.046875 71.953125 32.253906 72 72zm0 0"/><path d="m208.066406 456.128906h-104c-4.417968 0-8 3.582032-8 8 0 4.417969 3.582032 8 8 8h104c4.417969 0 8-3.582031 8-8 0-4.417968-3.582031-8-8-8zm0 0"/><path d="m232.066406 472.128906h8c4.417969 0 8-3.582031 8-8 0-4.417968-3.582031-8-8-8h-8c-4.417968 0-8 3.582032-8 8 0 4.417969 3.582032 8 8 8zm0 0"/><path d="m64.066406 176.128906h104c4.417969 0 8-3.582031 8-8 0-4.417968-3.582031-8-8-8h-104c-4.417968 0-8 3.582032-8 8 0 4.417969 3.582032 8 8 8zm0 0"/><path d="m40.066406 160.128906h-8c-4.417968 0-8 3.582032-8 8 0 4.417969 3.582032 8 8 8h8c4.417969 0 8-3.582031 8-8 0-4.417968-3.582031-8-8-8zm0 0"/><path d="m90.089844 296.128906h-2.023438c-4.417968 0-8 3.582032-8 8 0 4.417969 3.582032 8 8 8 .015625 2.675782.199219 5.347656.542969 8h-.542969c-4.417968 0-8 3.582032-8 8 0 4.417969 3.582032 8 8 8h4.695313c6.554687 18.503906 23.691406 31.167969 43.304687 32 15.09375-.292968 29.0625-8.046875 37.292969-20.703125 1.707031-2.34375 2.011719-5.429687.796875-8.0625-1.214844-2.632812-3.761719-4.402343-6.652344-4.625-2.890625-.21875-5.675781 1.140625-7.277344 3.558594-5.273437 8.320313-14.316406 13.5-24.160156 13.832031-10.710937-.464844-20.382812-6.546875-25.441406-16h17.441406c4.417969 0 8-3.582031 8-8 0-4.417968-3.582031-8-8-8h-23.351562c-.433594-2.644531-.652344-5.320312-.648438-8h24c4.417969 0 8-3.582031 8-8 0-4.417968-3.582031-8-8-8h-21.289062c3.664062-13.414062 15.414062-23.042968 29.289062-24 9.84375.335938 18.886719 5.511719 24.160156 13.832032 1.601563 2.417968 4.386719 3.78125 7.277344 3.558593 2.890625-.21875 5.4375-1.988281 6.652344-4.621093 1.214844-2.636719.910156-5.71875-.796875-8.0625-8.230469-12.660157-22.199219-20.414063-37.292969-20.707032-22.664062 1.269532-41.585937 17.730469-45.976562 40zm0 0"/></g></svg>