<?xml version="1.0" encoding="iso-8859-1"?>
<!-- Generator: Adobe Illustrator 19.0.0, SVG Export Plug-In . SVG Version: 6.00 Build 0)  -->
<svg version="1.1" id="Capa_1" xmlns="http://www.w3.org/2000/svg" xmlns:xlink="http://www.w3.org/1999/xlink" x="0px" y="0px"
	 viewBox="0 0 512.002 512.002" style="enable-background:new 0 0 512.002 512.002;" xml:space="preserve">
<path style="fill:#D7AF87;" d="M381.844,230.762h-251.69c-2.761,0-5-2.239-5-5V47.5c0-22.091,17.909-40,40-40h181.691
	c22.091,0,40,17.909,40,40v178.262C386.844,228.523,384.607,230.762,381.844,230.762z"/>
<path style="fill:#C49D7A;" d="M386.844,46.328v179.58c0,2.681-2.154,4.854-4.811,4.854H353.17c2.657,0,4.811-2.173,4.811-4.854
	V46.328c0-21.444-17.23-38.828-38.484-38.828h28.863C369.615,7.5,386.844,24.884,386.844,46.328z"/>
<path style="fill:#FAEDE0;" d="M340.183,154.988H171.815V46.79c0-3.946,4.116-6.513,7.614-4.748l27.812,14.03
	c4.384,2.211,9.217,3.363,14.118,3.363h69.279c4.901,0,9.735-1.151,14.118-3.363l27.812-14.03c3.498-1.765,7.615,0.802,7.615,4.748
	V154.988z"/>
<path style="fill:#FEF0FF;" d="M227.943,123.983c-31.096-0.132-56.127-25.861-56.127-57.236V46.79c0-3.946,4.116-6.513,7.614-4.748
	l27.812,14.03c4.383,2.211,9.217,3.363,14.118,3.363h69.279c4.901,0,9.734-1.151,14.118-3.363l17.731-8.945
	c1.503,4.43,2.302,9.034,2.302,13.761c0,34.847-43.075,63.096-96.21,63.096C228.367,123.984,228.156,123.984,227.943,123.983z"/>
<path style="fill:#E89A6A;" d="M391.174,332.686v166.961c0,2.681-2.154,4.854-4.81,4.854h-28.863c-2.657,0-4.811-2.173-4.811-4.854
	v-26.209H159.309v26.209c0,2.681-2.154,4.854-4.811,4.854h-28.863c-2.657,0-4.81-2.173-4.81-4.854V332.686
	c0-2.681,2.154-4.854,4.81-4.854h27.901h0.962H357.5h0.962h27.901C389.021,327.832,391.174,330.005,391.174,332.686z"/>
<path style="fill:#D3754F;" d="M154.498,327.832h9.632c-2.657,0-4.811,2.173-4.811,4.854v140.752h-0.011v26.209
	c0,2.681-2.154,4.854-4.811,4.854h-28.863c-2.657,0-4.81-2.173-4.81-4.854V332.686c0-2.681,2.154-4.854,4.81-4.854h27.901H154.498z
	 M386.364,327.832h-27.901H357.5h-9.632c2.657,0,4.81,2.173,4.81,4.854v140.752h0.011v26.209c0,2.681,2.154,4.854,4.81,4.854h28.863
	c2.657,0,4.81-2.173,4.81-4.854V332.686C391.174,330.005,389.021,327.832,386.364,327.832z"/>
<path style="fill:#F8DBB8;" d="M391.174,439.463H219.345c-14.344,0-28.664-1.196-42.813-3.575l-15.207-2.557
	c-14.149-2.379-28.468-3.575-42.813-3.575h2.311c-5.314,0-9.621-4.346-9.621-9.707v-58.242h289.592v67.949
	C400.795,435.117,396.487,439.463,391.174,439.463z"/>
<path style="fill:#EBC9A0;" d="M400.795,361.807v67.949c0,5.361-4.307,9.707-9.621,9.707h-35.117c5.314,0,9.621-4.346,9.621-9.707
	v-67.949H400.795z"/>
<path style="fill:#70B5E8;" d="M411.378,188.545v182.383c0,11.046-8.954,20-20,20H120.62c-11.046,0-20-8.954-20-20V188.545
	c0-27.614,22.386-50,50-50h210.758C388.992,138.545,411.378,160.931,411.378,188.545z"/>
<path style="fill:#52A5D8;" d="M411.138,182.227c0.157,1.597,0.24,3.215,0.24,4.854v9.707v33.975v140.752
	c0,10.722-8.615,19.414-19.242,19.414h-33.192c10.627,0,19.242-8.692,19.242-19.414V269.59c0-21.444-17.23-38.828-38.484-38.828
	H100.62v-33.975c0-5.078,0.797-9.962,2.234-14.561h308.284V182.227z"/>
<path style="fill:#84C5FA;" d="M401,196.464h-290c-11.046,0-20-8.954-20-20v-17.919c0-11.046,8.954-20,20-20h290
	c11.046,0,20,8.954,20,20v17.919C421,187.509,412.045,196.464,401,196.464z"/>
<path style="fill:#A2DAF9;" d="M368.565,196.463H110.241c-10.627,0-19.242-8.692-19.242-19.414v-19.09
	c0-10.722,8.615-19.414,19.242-19.414h258.324c10.627,0,19.242,8.692,19.242,19.414v19.09
	C387.807,187.772,379.193,196.463,368.565,196.463z"/>
<path d="M401.758,131.045h-7.412V46.328C394.346,20.783,373.716,0,348.36,0H163.639c-25.355,0-45.984,20.783-45.984,46.328v84.717
	h-7.412c-14.746,0-26.742,12.074-26.742,26.914v19.09c0,8.29,3.746,15.715,9.621,20.656v173.809c0,8.734,4.158,16.506,10.583,21.427
	v27.109c0,6.785,3.931,12.66,9.621,15.46v64.138c0,6.812,5.522,12.354,12.311,12.354H154.5c6.787,0,12.31-5.542,12.31-12.354
	v-18.709h178.383v18.709c0,6.812,5.522,12.354,12.31,12.354h28.863c6.788,0,12.311-5.542,12.311-12.354V445.2
	c5.687-2.801,9.621-8.662,9.621-15.444V392.94c6.425-4.92,10.583-12.693,10.583-21.427V197.705
	c5.875-4.941,9.621-12.365,9.621-20.656v-19.09C428.5,143.119,416.503,131.045,401.758,131.045z M132.654,46.328
	c0-17.274,13.899-31.328,30.984-31.328h184.723c17.085,0,30.984,14.054,30.984,31.328v84.717h-31.662V46.79
	c0-4.49-2.277-8.572-6.091-10.919c-3.793-2.334-8.429-2.53-12.401-0.525l-27.812,14.03c-3.318,1.674-7.032,2.559-10.74,2.559
	h-69.279c-3.708,0-7.422-0.885-10.74-2.559l-27.811-14.03c-3.973-2.004-8.609-1.81-12.402,0.524
	c-3.813,2.348-6.091,6.429-6.091,10.919v84.255h-31.662L132.654,46.328L132.654,46.328z M98.499,157.959
	c0-6.569,5.268-11.914,11.742-11.914h169.168c4.143,0,7.5-3.358,7.5-7.5s-3.357-7.5-7.5-7.5H179.315v-80.66l24.548,12.384
	c5.402,2.726,11.453,4.166,17.496,4.166h69.279c6.043,0,12.094-1.44,17.496-4.166l24.548-12.384v80.66H307.31
	c-4.143,0-7.5,3.358-7.5,7.5s3.357,7.5,7.5,7.5h94.446c6.475,0,11.742,5.345,11.742,11.914v19.09
	c0,6.569-5.268,11.914-11.742,11.914H110.241c-6.475,0-11.742-5.345-11.742-11.914V157.959z M360.19,497v-23.563
	c0-4.142-3.357-7.5-7.5-7.5H159.309c-4.143,0-7.5,3.358-7.5,7.5V497h-23.483v-59.545c10.639,0.419,21.283,1.51,31.759,3.272
	l15.205,2.557c14.518,2.441,29.34,3.679,44.057,3.679h164.329V497H360.19z M393.295,429.756c0,1.217-0.951,2.207-2.121,2.207
	H219.345c-13.886,0-27.871-1.168-41.569-3.471l-15.205-2.557c-13.603-2.288-27.472-3.518-41.271-3.665
	c-0.149-0.009-0.299-0.013-0.45-0.014c-0.008,0-0.017-0.001-0.025-0.001c-0.001,0-0.002,0-0.003,0
	c-1.168-0.002-2.118-0.991-2.118-2.207v-21.651c0.385,0.017,0.771,0.03,1.159,0.03h42.813c4.143,0,7.5-3.358,7.5-7.5
	s-3.357-7.5-7.5-7.5h-42.813c-6.475,0-11.742-5.345-11.742-11.914V203.871c0.701,0.056,1.406,0.093,2.121,0.093H343.56
	c-13.815,21.151-37.058,40.635-67.98,56.843c-36.505,19.134-82.223,32.905-132.211,39.826c-4.104,0.568-6.969,4.355-6.4,8.458
	c0.52,3.754,3.733,6.472,7.419,6.472c0.343,0,0.689-0.023,1.038-0.072c103.902-14.385,185.919-56.94,215.593-111.527h11.083
	c-8.31,49.87-26.225,94.759-50.854,127.116c-26.068,34.247-57.28,52.349-90.262,52.349h-41.05c-4.143,0-7.5,3.358-7.5,7.5
	s3.357,7.5,7.5,7.5h202.201c0.389,0,0.774-0.013,1.159-0.03V429.756z M403.878,371.514c0,6.569-5.268,11.914-11.742,11.914H285.271
	c17.34-9.87,33.591-24.45,47.912-43.264c26.489-34.801,45.599-82.976,54.119-136.201h14.456c0.715,0,1.42-0.037,2.121-0.093V371.514
	L403.878,371.514z"/>
<g>
</g>
<g>
</g>
<g>
</g>
<g>
</g>
<g>
</g>
<g>
</g>
<g>
</g>
<g>
</g>
<g>
</g>
<g>
</g>
<g>
</g>
<g>
</g>
<g>
</g>
<g>
</g>
<g>
</g>
</svg>
